<?xml version="1.0" standalone="no"?>
<!DOCTYPE svg PUBLIC "-//W3C//DTD SVG 20010904//EN"
 "http://www.w3.org/TR/2001/REC-SVG-20010904/DTD/svg10.dtd">
<svg version="1.0" xmlns="http://www.w3.org/2000/svg"
 width="501.000000pt" height="501.000000pt" viewBox="0 0 501.000000 501.000000"
 preserveAspectRatio="xMidYMid meet">
<metadata>
Created by potrace 1.14, written by Peter Selinger 2001-2017
</metadata>
<g transform="translate(0.000000,501.000000) scale(0.100000,-0.100000)"
fill="#000000" stroke="none">
<path d="M2399 3758 c-1 -2 -2 -101 -3 -221 l-1 -218 25 -5 c203 -46 321 -108
447 -233 137 -137 225 -330 235 -516 l3 -60 -603 -1 c-332 -1 -605 -4 -608 -7
-9 -8 15 -113 36 -160 41 -92 144 -180 248 -210 72 -22 191 -17 262 11 67 26
138 82 176 139 20 30 36 43 54 44 75 3 403 -1 407 -5 18 -17 -82 -226 -145
-306 -119 -149 -294 -258 -472 -294 l-65 -13 0 -222 0 -223 45 5 c329 38 653
228 856 503 115 155 209 375 229 539 4 28 8 61 11 75 6 34 6 227 0 270 -13 88
-19 120 -37 188 -53 207 -170 406 -333 567 -100 98 -173 152 -300 220 -77 42
-226 98 -291 109 -16 3 -41 8 -55 11 -37 8 -120 17 -121 13z"/>
<path d="M2176 2894 c-72 -23 -149 -76 -195 -134 -39 -49 -45 -61 -38 -76 1
-5 639 -9 710 -4 4 0 -6 20 -23 44 -80 117 -181 175 -318 182 -62 3 -101 -1
-136 -12z"/>
</g>
</svg>
