<?xml version="1.0" encoding="UTF-8"?><svg id="Layer_2" xmlns="http://www.w3.org/2000/svg" viewBox="0 0 90.39 42.25"><defs><style>.cls-1{fill:#fff;}</style></defs><g id="Layer_1-2"><g><path class="cls-1" d="M89.35,14.22c-2.04,.38-3.93,1.35-6.14,.53-8.31-3.09-16.67-6.08-25-9.11-2.46-.9-4.91-1.83-7.36-2.76-.75-.29-1.47-.46-2.3-.19-8.98,2.94-17.99,5.8-27.05,8.49-1.08,.32-1.43,.82-1.4,1.93,.21,6.24,.37,12.48,.52,18.73,.02,.79,.31,1.16,1.11,1.12,.42-.02,.83,0,1.25,0,21.66,0,43.32,0,64.98,0,.46,0,.92,.02,1.37,0,.83-.02,1.05,.45,1.04,1.2-.01,.71-.25,1.11-1.01,1.1-.46-.01-.92,0-1.37,0-21.74,0-43.49,0-65.23,0q-1.95,0-1.91,1.9c.02,.96,0,1.92,.09,2.87,.08,.82-.21,1.16-1.01,1.19-1.62,.07-3.24,.14-4.86,.26-.96,.07-1.32-.31-1.36-1.28-.2-5.37-.46-10.73-.68-16.09-.25-5.86-.51-11.72-.73-17.59-.07-1.99-.02-1.97,1.96-2.13,1.33-.1,2.65-.3,3.97-.44,1.43-.15,1.59,0,1.65,1.41,.04,1.08,.11,2.16,.19,3.24,.1,1.38,.15,1.41,1.51,.96,6.94-2.34,13.89-4.69,20.83-7.03,2.33-.79,4.67-1.54,6.99-2.35,.75-.26,1.44-.25,2.18,.02,11.07,4.03,22.15,8.05,33.22,12.08,1.54,.56,3.13,.99,4.56,1.93Z"/><path class="cls-1" d="M2.77,7.11c0-.29,0-.58,0-.87,0-1.2,1.46-2.16,2.59-1.71,.43,.17,.44,.56,.47,.94,.27,4.32,.52,8.63,.79,12.95,.37,5.81,.77,11.62,1.14,17.43,.11,1.7,.16,3.41,.26,5.11,.05,.79-.16,1.35-1.07,1.28-.86-.07-2.06,.46-2.16-1.12-.14-2.32-.31-4.65-.44-6.97-.52-9.01-1.04-18.02-1.55-27.03-.01,0-.03,0-.04,0Z"/><path class="cls-1" d="M11.62,35.1c0,1.87-.02,3.75,0,5.62,.01,.81-.26,1.24-1.14,1.24-.83,0-1.18-.31-1.22-1.17-.3-5.86-.65-11.71-.98-17.57-.33-5.82-.67-11.63-.98-17.45-.03-.54-.29-1.33,.47-1.51,.91-.22,1.92-.32,2.81,.1,.45,.21,.27,.82,.31,1.27,.32,3.82,.18,7.66,.28,11.48,.17,5.99,.33,11.98,.49,17.97-.01,0-.03,0-.04,0Z"/><path class="cls-1" d="M64.02,27.77c-.05-3.44,.45-2.94-2.85-2.98-2.03-.02-2.03,0-2.03,2.03,0,.83,.02,1.67,0,2.5-.02,.76,.14,1.4,.91,1.75,.22,.1,.49,.23,.43,.54-.06,.29-.34,.35-.59,.35-1.17,.01-2.33,.01-3.5,0-.25,0-.52-.07-.57-.37-.04-.25,.16-.38,.36-.45,.84-.3,.9-.99,.9-1.73,0-3.37,0-6.75,0-10.12,0-.73-.03-1.43-.87-1.75-.23-.09-.47-.24-.35-.56,.08-.22,.31-.27,.52-.27,1.21,0,2.41,0,3.62,0,.21,0,.43,.1,.48,.33,.05,.23-.13,.39-.33,.47-.94,.34-1.02,1.1-1,1.94,.02,.92,.04,1.83,0,2.75-.04,.88,.25,1.3,1.2,1.28,4.48-.09,3.59,.61,3.68-3.54,.02-.99,.13-2.01-1.09-2.53-.45-.19-.25-.64,.17-.66,1.29-.06,2.58-.04,3.87-.04,.21,0,.42,.11,.43,.36,0,.25-.18,.37-.38,.44-.83,.3-.92,.97-.92,1.72,0,3.42,0,6.83,0,10.25,0,.7,.09,1.34,.88,1.61,.24,.08,.5,.22,.4,.53-.08,.27-.37,.32-.62,.33-1.17,0-2.33,.02-3.5-.01-.39-.01-.91-.38-.39-.66,1.67-.88,.98-2.38,1.16-3.52Z"/><path class="cls-1" d="M2.14,22.27c0,5.66,0,11.32,0,16.98,0,.37-.01,.75-.01,1.12,0,.64-.36,.87-.96,.87-.56,0-.86-.24-.87-.81,0-.21-.01-.42-.02-.62C.19,28.15,.11,16.5,.04,4.85c0-.52-.19-1.13,.34-1.51,.35-.25,.81-.22,1.21-.08,.56,.19,.51,.71,.51,1.16,.02,4.12,.03,8.24,.04,12.36,0,1.83,0,3.66,0,5.49h.01Z"/><path class="cls-1" d="M22.66,13.8c.75-.6,1.41-.71,2.03-.91,8.13-2.59,16.27-5.15,24.39-7.76,1.04-.33,1.31-.08,1.16,.91-.04,.29-.08,.58-.09,.87-.15,2.65-.14,2.69-2.85,3.13-7.72,1.25-15.45,2.46-23.17,3.68-.39,.06-.79,.05-1.46,.09Z"/><path class="cls-1" d="M76.12,26.71c-.4-.31-.53-.36-.58-.46-.84-1.68-1.54-2.02-3.43-1.72-.43,.07-.73,.23-.74,.68-.01,1.54-.01,3.08,0,4.62,0,.55,.36,.84,.89,.85,2.68,.07,3.92,.21,4.81-2.25,.1-.27,.22-.73,.67-.54,.33,.14,.18,.51,.16,.79-.01,.17-.04,.33-.06,.5-.46,2.76-.52,2.81-3.35,2.81-1.83,0-3.67,0-5.5,0-.32,0-.73,.06-.89-.31-.19-.43,.24-.57,.5-.73,.58-.36,.66-.91,.66-1.52,0-3.37,0-6.75,0-10.12,0-.72-.21-1.26-.83-1.7-.59-.42-.36-.86,.27-.87,2.54-.05,5.08-.03,7.62-.03,.44,0,.71,.28,.73,.7,.04,.79,.04,1.58,.04,2.37,0,.2-.01,.44-.27,.5-.26,.06-.37-.15-.44-.34-.23-.65-.18-1.52-.96-1.79-1.08-.37-2.23-.19-3.35-.15-.6,.02-.73,.47-.73,.97,0,1.17,0,2.33,0,3.5,0,.7,.33,.96,1,.95,1.3-.03,2.79,.32,3.11-1.62,.03-.19,.16-.43,.42-.33,.11,.05,.23,.25,.23,.39,.02,1.53,.01,3.05,.01,4.87Z"/><path class="cls-1" d="M83.75,27.03c-2.04,0-3.04,1.12-2.89,3.24,.03,.41,.16,.72,.56,.88,.23,.09,.5,.2,.39,.52-.1,.28-.39,.29-.64,.29-.71,.01-1.42,.04-2.12-.01-.54-.04-1-.27-.37-.81,.71-.61,.99-1.42,1.26-2.25,1.17-3.64,2.32-7.29,3.5-10.93,.16-.48,.13-1.26,.79-1.25,.56,0,.56,.74,.71,1.19,1.22,3.63,2.42,7.26,3.63,10.88,.29,.86,.49,1.76,1.22,2.41,.46,.41,.16,.71-.29,.73-1.12,.05-2.24,.02-3.36,0-.14,0-.33-.13-.39-.25-.12-.24,.07-.4,.27-.46,.92-.27,.78-.94,.61-1.61-.04-.16-.09-.32-.14-.48-.73-2.35-.37-2.07-2.75-2.09Zm.17-6.22c-.1,0-.21,0-.31-.01-.29,.95-.59,1.89-.88,2.84-.71,2.33-.46,2.58,2.01,2.25,.59-.08,.7-.32,.54-.82-.46-1.42-.91-2.84-1.36-4.25Z"/><path class="cls-1" d="M32.19,31.98c-.42,0-.83,.01-1.25,0-.32-.01-.75,.05-.85-.35-.08-.37,.33-.4,.58-.53,.46-.25,.4-.68,.37-1.1-.17-2.52-2.3-3.84-4.68-2.91-.31,.12-.47,.34-.55,.63-.22,.76-.45,1.52-.63,2.29-.11,.48-.03,.92,.52,1.13,.23,.09,.54,.19,.48,.48-.07,.35-.43,.35-.71,.36-.67,.01-1.33,.01-2,0-.29,0-.63,0-.74-.33-.09-.28,.16-.44,.36-.59,.68-.51,.92-1.26,1.16-2.02,1.2-3.77,2.39-7.54,3.61-11.3,.13-.4,.11-1.06,.7-1.04,.57,.01,.55,.66,.69,1.06,1.27,3.79,2.52,7.58,3.78,11.38,.25,.75,.45,1.51,1.15,2.02,.54,.4,.33,.73-.24,.8-.58,.06-1.16,.01-1.75,.01,0,0,0,.02,0,.03Zm-3.93-11.19c-.17,.07-.29,.08-.3,.13-.3,.91-.6,1.82-.88,2.73-.76,2.4-.69,2.49,1.84,2.23,.04,0,.08,0,.12,0,.55-.02,.75-.27,.57-.81-.46-1.42-.9-2.84-1.35-4.28Z"/><path class="cls-1" d="M51.32,24.42c0,1.62,0,3.24,0,4.87,0,.84,.07,1.6,1.09,1.83,.25,.06,.49,.22,.41,.52-.08,.28-.37,.32-.62,.32-1.29,0-2.58,0-3.87,0-.25,0-.54-.06-.6-.34-.06-.3,.2-.43,.44-.51,1-.32,1.1-1.11,1.1-2-.01-3.24,0-6.49-.01-9.73,0-.5,.21-1.19-.57-1.32-.69-.12-1.44-.19-1.96,.45-.2,.25-.3,.59-.46,.87-.22,.39-.05,1.21-.72,1.08-.49-.09-.26-.8-.26-1.22,0-2.98-.06-2.54,2.56-2.56,2.04-.01,4.08,.02,6.11-.01,.84-.01,1.24,.28,1.24,1.14,0,.75,.08,1.49,.11,2.24,0,.21-.06,.45-.28,.51-.31,.08-.42-.18-.51-.42-.17-.43-.31-.86-.5-1.28-.41-.9-1.22-.94-2.02-.82-.84,.12-.65,.85-.66,1.4-.02,1.66,0,3.33,0,4.99h0Z"/><path class="cls-1" d="M39.43,31.98c-1.21,0-2.41,0-3.62,0-.32,0-.74,.04-.84-.37-.09-.36,.28-.47,.53-.59,.63-.29,.77-.81,.77-1.44,0-3.5,0-6.99,0-10.49,0-.67-.15-1.24-.84-1.52-.23-.1-.5-.21-.46-.51,.04-.3,.33-.36,.58-.36,1.21,0,2.41,0,3.62,0,.21,0,.44,.06,.52,.28,.11,.32-.13,.46-.37,.54-.91,.29-.98,1.01-.98,1.8,.01,3.29,.04,6.58-.01,9.87-.02,1.15,.43,1.49,1.54,1.54,2.04,.1,3.63-.38,4.32-2.52,.08-.26,.23-.65,.56-.56,.46,.12,.24,.53,.2,.84q-.48,3.49-4.02,3.49c-.5,0-1,0-1.5,0h0Z"/></g></g></svg>