<?xml version="1.0" encoding="UTF-8"?><svg id="Layer_2" xmlns="http://www.w3.org/2000/svg" xmlns:xlink="http://www.w3.org/1999/xlink" viewBox="0 0 96.89 36.74"><defs><style>.cls-1{fill:url(#linear-gradient-2);}.cls-2{fill:#fdffff;}.cls-2,.cls-3{font-family:Reef-Bold, Reef;font-size:17.83px;letter-spacing:.15em;}.cls-3{fill:#fff;}.cls-4{fill:url(#linear-gradient-3);}.cls-5{fill:url(#linear-gradient);}</style><linearGradient id="linear-gradient" x1="104.74" y1="24.27" x2="100.47" y2="21.61" gradientUnits="userSpaceOnUse"><stop offset=".12" stop-color="#fff"/><stop offset="1" stop-color="#fff"/></linearGradient><linearGradient id="linear-gradient-2" x1="-38.49" y1="-10.4" x2="-38.49" y2="12.18" gradientTransform="translate(55.97 -9.5) rotate(-25)" gradientUnits="userSpaceOnUse"><stop offset="0" stop-color="#6d6d6d"/><stop offset=".19" stop-color="#838383"/><stop offset=".59" stop-color="#bdbdbd"/><stop offset="1" stop-color="#fff"/></linearGradient><linearGradient id="linear-gradient-3" x1="-17.76" y1="63.19" x2="-17.76" y2="27.45" gradientTransform="translate(17.4 -34.13) rotate(-25)" gradientUnits="userSpaceOnUse"><stop offset=".02" stop-color="#fff"/><stop offset="1" stop-color="#fff"/></linearGradient></defs><g id="Layer_1-2"><g><text class="cls-3" transform="translate(45.92 23.43)"><tspan x="0" y="0">ead</tspan></text><text class="cls-2" transform="translate(45.92 23.43)"><tspan x="0" y="0">ead</tspan></text></g><g><path class="cls-5" d="M88.37,18.18c0,.3-.08,.57-.23,.82-.31,.54-.78,.81-1.4,.81h-4.05c0,.56,.19,1.03,.58,1.42,.39,.39,.86,.58,1.41,.58h.06c.67,0,1.21-.28,1.61-.83,.23-.32,.54-.41,.91-.28,.26,.09,.43,.26,.51,.52,.08,.27,.04,.51-.12,.73-.73,.99-1.7,1.48-2.92,1.48h-.06c-.99,0-1.84-.35-2.55-1.05-.7-.7-1.06-1.54-1.07-2.53v-1.67c0-1,.35-1.85,1.06-2.55,.71-.71,1.56-1.06,2.56-1.06h.06c1.01,0,1.87,.36,2.58,1.08,.34,.34,.59,.73,.78,1.18,.1,.24,.17,.48,.21,.74,.04,.2,.06,.41,.06,.62Zm-5.68,0h4.04c0-.55-.2-1.02-.58-1.41-.4-.39-.86-.58-1.4-.58h-.06c-.55,0-1.02,.19-1.41,.58-.39,.39-.58,.86-.58,1.4h0Z"/><path class="cls-5" d="M96.07,14.55c.23,0,.42,.08,.57,.24,.16,.16,.24,.35,.24,.57s-.08,.42-.24,.57c-.16,.16-.35,.23-.57,.23h0c-.55,0-1.02,.2-1.41,.59-.39,.39-.58,.86-.58,1.4v4.44c0,.23-.08,.42-.24,.58-.16,.16-.35,.23-.58,.23s-.42-.08-.58-.23c-.16-.16-.24-.36-.24-.58v-7.26c0-.23,.08-.42,.24-.57,.16-.16,.36-.24,.58-.24,.19,0,.36,.06,.5,.18,.15,.12,.24,.27,.29,.45,.6-.41,1.27-.62,2.01-.62h0Z"/></g><g><path class="cls-1" d="M36.18,13.36c-2.17-.94-4.71-.99-7.02,.09l-7.31,3.41-5.56-11.93c-1.08-2.31-3.06-3.91-5.32-4.58-4.51-.09-7.35,1.22-5.01,2.61,1.24,.37,2.36,1.33,3.04,2.79l9.15,19.61c.19,.41,.67,.58,1.08,.39l15-7c1.34-.63,2.68-.69,3.81-.31,3.02,.62,1.94-2.75-1.85-5.1Z"/><path class="cls-4" d="M36.18,13.36c3.46,2.37,2.94,6.6-.63,8.27l-16.15,7.53c-1.35,.63-2.95,.05-3.58-1.3L6.12,7.09C4.46,3.52,6.78-.06,10.95,.35,9.03-.22,6.89-.11,4.93,.8,.66,2.79-1.19,7.87,.8,12.15L9.97,31.81s0,0,0,0c1.87,4.01,6.45,5.88,10.54,4.46,.27-.09,15.86-7.35,15.86-7.35,4.27-1.99,6.12-7.07,4.13-11.35-.92-1.96-2.48-3.41-4.32-4.22Z"/></g></g></svg>