<?xml version="1.0" encoding="UTF-8"?><svg id="Layer_2" xmlns="http://www.w3.org/2000/svg" viewBox="0 0 60.78 42.05"><defs><style>.cls-1{fill:#fff;}</style></defs><g id="Layer_1-2"><g><path class="cls-1" d="M30.33,0c5.99,0,11.99-.02,17.98,.01,1.82,0,3.58,.39,5.26,1.19,2.97,1.41,5.03,3.66,6.27,6.65,.48,1.14,.79,2.35,.83,3.62,.18,5.37,.08,10.74,.06,16.12-.01,2.98-1.01,5.66-3.01,7.93-.17,.19-.2,.39-.16,.64,.19,1.08,.36,2.16,.54,3.23,.04,.24,.08,.49-.23,.56-.29,.06-.41-.19-.47-.41-.22-.75-.42-1.51-.63-2.27-.16-.58-.15-.57-.61-.22-.47,.37-.91,.79-1.47,1.03-.49,.21-.58,.63-.6,1.1-.03,.59-.09,1.17-.34,1.71-.41,.86-1,1.23-1.91,1.16-.87-.07-1.49-.55-1.82-1.36-.08-.2-.13-.41-.2-.61-.08-.21-.25-.28-.45-.2-.2,.08-.07,.23-.04,.35,.04,.13,.09,.26,.11,.4,.07,.43-.08,.64-.5,.63-.41-.02-.83,0-1.22-.2-.63-.34-1.23,.03-1.83,.15-.19,.04-.38,.13-.56,.21-.18,.08-.36,.11-.52-.03-.16-.14-.16-.32-.11-.51,.14-.56,.14-.57-.43-.57-.3,0-.6,0-.86-.12-.6-.28-1.22-.26-1.86-.26-9.55,0-19.11,0-28.66,0-2.04,0-3.99-.39-5.86-1.27-1.8-.85-3.26-2.09-4.48-3.62-1.29-1.62-2.03-3.51-2.41-5.53-.1-.54-.14-1.1-.14-1.65-.01-5.25-.03-10.5,0-15.75,.02-2.46,.81-4.69,2.21-6.73,.85-1.23,1.9-2.27,3.1-3.13,1.16-.83,2.44-1.42,3.83-1.78C10.35,.16,11.55,0,12.76,0c5.85,0,11.71,0,17.56,0Zm16.65,36.98c.25-.16,.27-.33,.32-.48,.18-.64,.41-1.26,.69-1.86,.21-.46,.34-.9-.16-1.28-.08-.06-.11-.18-.15-.28-.56-1.44-1.1-2.88-1.29-4.42-.16-1.26,.33-2.31,1.3-3.08,.96-.76,2.07-.79,3.2-.4,.35,.12,.43,.02,.44-.31,.01-.5-.09-.98-.09-1.47-.01-2,0-4,0-6.01,0-.14-.02-.29,.04-.41,.23-.49-.25-.89-.14-1.36,0-.03-.11-.1-.18-.13-1.13-.46-1.75-1.38-2.2-2.43-.36-.85-.65-1.74-.4-2.69,.61-2.3,3.22-2.74,4.87-1.81,.89,.5,1.37,1.28,1.35,2.36-.03,1.73-.63,3.17-2.02,4.26-.31,.24-.98,.16-.78,.85-.42,.42-.33,.98-.34,1.48-.03,2.45-.06,4.89,.08,7.34,.02,.32,.05,.63,.32,.83,.96,.7,1.55,1.65,1.9,2.77,.1,.31,.28,.39,.58,.4,.62,0,1.23-.06,1.83-.2,1.01-.23,1.24,0,.96,.98-.02,.09-.06,.18-.08,.27-.11,.6-.11,1.19,.05,1.78,.05,.19,.13,.37,.34,.4,.25,.05,.29-.2,.36-.35,.6-1.35,.89-2.74,.87-4.25-.05-5.02-.03-10.04-.01-15.06,0-.79,0-1.56-.19-2.33-.55-2.13-1.56-3.96-3.22-5.42-.55-.48-1.15-.86-1.77-1.24-1.46-.89-3.06-1.37-4.73-1.37-12.13-.04-24.25-.03-36.38,0-1.63,0-3.21,.38-4.66,1.15-1.23,.66-2.32,1.48-3.23,2.57-1.51,1.82-2.36,3.89-2.38,6.25-.04,5.1,0,10.19-.02,15.29,0,1.02,.11,2.01,.38,3.01,.46,1.71,1.33,3.19,2.55,4.43,2.04,2.08,4.58,3.11,7.47,3.12,9.6,.04,19.2,.01,28.8,.01,.09,0,.19,0,.28,0,.34,.02,.47-.13,.46-.47-.01-.46-.05-.93,.01-1.38,.17-1.25,.4-1.85,1.9-1.84,.42,0,.83,0,1.25,0,1.24,.03,1.82,.62,1.84,1.86,0,.28,0,.57,0,.93Zm5.04,4.32c.64,0,1.02-.26,1.18-.88,.11-.41,.15-.85,.21-1.27,.05-.3-.11-.3-.33-.22-.75,.28-1.5,.54-2.28,.71-.21,.05-.27,.14-.24,.35,.11,.8,.67,1.31,1.46,1.31Zm.64-4.81c.64,.01,.96-.26,1.09-.87,.06-.3,.16-.59,.31-.86,.06-.1,.19-.2,.08-.32-.09-.1-.23-.05-.35-.03-.45,.1-.9,.18-1.36,.15-.38-.02-.49,.18-.43,.52,.07,.36,.16,.72,.23,1.08,.05,.27,.2,.36,.43,.34Zm-2.62-1.09c0,.75,.35,1.06,1.22,1.09,.28,0,.4-.07,.33-.37-.07-.3-.13-.6-.19-.9-.05-.27-.13-.5-.5-.46-.7,.08-.86,.19-.86,.64Zm.64-9.53c-.11-.01-.18,.03-.21,.13-.05,.17,.07,.25,.19,.32,.47,.23,.9,.51,1.23,.93,.08,.1,.16,.14,.27,.04,.09-.08,.12-.16,.08-.28-.11-.34-1.19-1.14-1.56-1.14Zm-1.13-.19c-.33-.02-.64,.07-.94,.19-.15,.06-.21,.17-.16,.33,.05,.13,.14,.21,.28,.18,.39-.08,.77-.17,1.16-.27,.11-.03,.19-.1,.19-.23,0-.13-.1-.18-.22-.19-.11-.01-.21-.01-.32-.02Zm.93,1.24c-.13-.01-.21,.04-.25,.16-.05,.11-.03,.21,.09,.28,.29,.16,.53,.37,.76,.6,.08,.08,.19,.11,.29,.03,.09-.07,.13-.17,.1-.28-.06-.24-.73-.77-.99-.77Zm-3.29,.86c0,.1-.01,.2,.07,.26,.06,.05,.13,.01,.15-.05,.15-.47,.47-.85,.72-1.26,.07-.11,.06-.25-.04-.34-.14-.12-.21,.03-.3,.1-.41,.33-.51,.81-.6,1.28Zm2.32-.99c-.28,.05-.61,.09-.7,.44-.04,.14,.15,.21,.26,.17,.28-.1,.7,0,.77-.43,.03-.2-.18-.16-.33-.18Zm-.96,1.05c-.01-.18,0-.29-.12-.36-.06-.04-.12,0-.15,.06-.17,.31-.35,.61-.33,.98,0,.09,0,.19,.12,.22,.09,.02,.15-.04,.18-.11,.11-.28,.22-.57,.3-.79Zm2.91,9.54s0-.07,0-.11c-.28-.06-.57-.11-.85-.17-.12-.02-.25-.05-.33,.09-.06,.1-.06,.21-.02,.31,.07,.15,.21,.12,.32,.09,.3-.06,.59-.14,.89-.21Zm1.48-9.12c-.1-.24-.12-.59-.42-.73-.15-.06-.24,.13-.19,.27,.1,.27,.07,.64,.46,.71,.13,.02,.18-.09,.16-.25Zm-5.01,.98c.04,.48-.08,.99,.29,1.39-.04-.48,.09-.99-.29-1.39Zm1.11,6.03c-.17,.03-.4,.02-.41,.26,0,.25,.24,.29,.43,.32,.23,.05,.23-.14,.23-.29,0-.16-.02-.31-.25-.29Zm1.42-6.6c.1,.02,.26,.05,.25-.09-.02-.27-.23-.43-.46-.51-.16-.06-.2,.09-.21,.22-.02,.29,.18,.35,.41,.38Zm-1.19,8.07c-.05,.29-.09,.49-.12,.69-.02,.12-.02,.27,.14,.29,.16,.02,.19-.12,.2-.25,.01-.23,0-.45-.21-.74Zm.4-8.46c-.02-.13,.02-.31-.18-.32-.14,0-.28,.08-.27,.25,.01,.15,.08,.33,.25,.35,.21,.04,.18-.16,.2-.28Zm5.23,6.54c-.24,.19-.31,.39-.37,.59-.02,.09-.05,.2,.05,.24,.13,.05,.2-.07,.22-.17,.04-.19,.06-.39,.1-.66Zm-2.97-6.31c-.04-.13-.08-.27-.26-.26-.12,.01-.19,.11-.18,.23,0,.14,.1,.22,.24,.23,.13,0,.2-.05,.2-.2Zm-3.51,3.68c.07-.57,.05-.67-.19-.94-.02,.34,.06,.64,.19,.94Zm8.01,1.69c-.04-.14-.15-.14-.26-.12-.08,.02-.21,.03-.17,.16,.03,.1,.15,.16,.26,.15,.1,0,.16-.08,.17-.19Zm-8,2.65c.02-.07-.02-.1-.06-.1-.04,0-.09,.03-.11,.06-.01,.02,.01,.09,.04,.1,.06,.02,.11-.02,.13-.06Z"/><path class="cls-1" d="M25.43,9.19c-.34,.37-.45,.71-.61,1.02-.26,.49-.5,.99-.75,1.49-.1,.2-.19,.46-.47,.44-.26-.01-.32-.26-.4-.45-.29-.63-.56-1.27-.84-1.9-.04-.08-.05-.18-.2-.22-.04,.36-.11,.72-.13,1.08-.05,1.03-.13,2.06-.11,3.09,0,.64-.05,1.29-.09,1.93,0,.2-.05,.39-.3,.39-.25,0-.33-.18-.35-.4-.05-.82,.08-1.63,.08-2.44,0-1.66,0-3.32,.19-4.98,.03-.29,.08-.58,.17-.86,.12-.36,.36-.39,.61-.1,.15,.17,.18,.39,.23,.6,.2,.82,.4,1.65,.76,2.42,.08,.16,.14,.4,.33,.42,.22,.03,.26-.22,.35-.37,.52-.87,1.02-1.76,1.41-2.7,.1-.25,.22-.5,.56-.45,.35,.06,.41,.33,.39,.63-.16,2.6-.06,5.2-.09,7.8,0,.17-.02,.34-.13,.48-.09,.12-.22,.17-.37,.14-.14-.03-.22-.12-.23-.26-.02-.15-.02-.31-.02-.46,0-1.89,0-3.79,0-5.68,0-.17,0-.34,0-.65Z"/><path class="cls-1" d="M32.09,11.68c0-1.4,0-2.8,0-4.2,0-.8,.27-1.03,1.06-.89,.44,.08,.8,.29,1.09,.64,.72,.86,1.05,1.87,1.14,2.97,.14,1.64,.08,3.26-.54,4.81-.34,.84-.93,1.41-1.83,1.6-.69,.15-.91-.04-.91-.73,0-1.4,0-2.8,0-4.2Zm.75,1.69c0,.66,0,1.32,0,1.98,0,.15-.03,.33,.15,.4,.16,.06,.3-.03,.42-.13,.25-.21,.48-.43,.62-.74,.98-2.19,.79-4.4,.06-6.61-.09-.29-.28-.55-.56-.71-.42-.24-.61-.16-.6,.32,.05,1.83-.13,3.66-.1,5.49Z"/><path class="cls-1" d="M38.56,22.5c0-1.4,0-2.8,0-4.2,0-.82,.29-1.06,1.09-.9,.44,.09,.79,.31,1.07,.66,.7,.86,1.03,1.85,1.12,2.93,.14,1.64,.09,3.26-.53,4.81-.34,.85-.95,1.43-1.87,1.62-.66,.13-.88-.05-.88-.73,0-1.4,0-2.8,0-4.2Zm2.6,.03c-.04-1.02-.11-2.09-.46-3.13-.12-.37-.29-.72-.61-.96-.15-.12-.34-.26-.55-.17-.21,.09-.14,.32-.14,.5-.01,.98,.04,1.97-.03,2.95-.11,1.51-.03,3.01-.05,4.52,0,.35,.18,.44,.47,.25,.3-.19,.54-.46,.7-.78,.52-.98,.65-2.04,.66-3.18Z"/><path class="cls-1" d="M24.15,25.24c-.04-2.03,.13-3.82,.1-5.62,0-.49,.09-.98,.08-1.47,0-.37,.2-.55,.57-.58,1.29-.11,2.1,.62,2.11,1.91,.01,.86-.14,1.65-.75,2.3-.14,.15-.15,.29-.01,.44,.47,.57,.56,1.25,.57,1.95,0,.65,.03,1.29,.09,1.93,.02,.25,.05,.56-.33,.6-.38,.03-.4-.25-.42-.52-.06-.8-.12-1.59-.17-2.39-.02-.35-.11-.67-.29-.96-.12-.18-.29-.29-.51-.24-.25,.05-.19,.28-.21,.45-.14,1.24-.08,2.49-.09,3.73,0,.11,0,.22,0,.32-.02,.23-.12,.39-.37,.39-.24,0-.36-.17-.36-.4,0-.69,0-1.38,0-1.85Zm2.12-5.69c-.05-.36-.08-.72-.36-.99-.17-.16-.37-.3-.62-.2-.23,.09-.21,.32-.22,.52-.03,.8,.05,1.6-.06,2.39-.04,.28,.11,.36,.37,.25,.18-.08,.3-.2,.4-.36,.31-.49,.41-1.05,.48-1.61Z"/><path class="cls-1" d="M31.02,15.46c-.01,.21,.08,.43-.05,.63-.09,.14-.19,.25-.36,.24-.19-.01-.25-.16-.27-.32-.07-.5-.14-1-.2-1.51-.04-.39-.21-.56-.63-.55-1.45,.03-1.16-.12-1.39,1.21-.03,.2-.06,.39-.11,.59-.04,.16-.13,.3-.31,.29-.21-.01-.29-.19-.29-.36,0-.26,.04-.52,.07-.78,.36-2.54,.73-5.08,1.1-7.62,.03-.2,.07-.39,.14-.58,.06-.2,.18-.37,.41-.38,.25-.01,.39,.16,.48,.37,.04,.1,.07,.2,.1,.31,.46,1.93,.77,3.89,1.01,5.86,.1,.87,.21,1.74,.31,2.61Zm-1.76-7.13s-.06,0-.09,0c-.16,1.26-.34,2.52-.48,3.78-.11,1.04-.35,.99,.9,1.03,.27,0,.36-.04,.31-.32-.09-.51-.14-1.03-.22-1.55-.14-.98-.28-1.96-.43-2.94Z"/><path class="cls-1" d="M23.04,22.6c-.17,.98,.02,2.11-.41,3.17-.34,.84-.87,1.3-1.51,1.29-.72,0-1.4-.56-1.71-1.35-.35-.89-.48-1.82-.53-2.75-.06-1.24-.07-2.49,.3-3.71,.29-.97,.95-1.57,1.75-1.6,.72-.03,1.14,.36,1.44,.96,.36,.73,.48,1.52,.56,2.32,.05,.52,.07,1.04,.11,1.67Zm-.84-.08c.04-.75-.04-1.72-.29-2.68-.11-.42-.23-.83-.5-1.18-.34-.44-.73-.44-1.06,0-.22,.3-.37,.64-.47,1-.4,1.44-.23,2.9-.12,4.35,.04,.55,.15,1.1,.39,1.61,.18,.39,.44,.73,.93,.71,.46-.02,.65-.38,.79-.74,.11-.27,.16-.56,.23-.84,.15-.65,.09-1.32,.11-2.22Z"/><path class="cls-1" d="M32.7,21.63c.6-1.17,1.14-2.29,1.49-3.48,.03-.09,.04-.18,.08-.27,.11-.3,.31-.49,.64-.38,.35,.12,.27,.41,.17,.66-.29,.71-.61,1.41-.91,2.12-.27,.62-.53,1.25-.81,1.86-.14,.31-.11,.56,.06,.86,.66,1.18,1.29,2.38,1.92,3.58,.12,.23,.19,.5-.11,.64-.27,.12-.47,0-.6-.27-.05-.11-.11-.22-.17-.33-.48-.93-.96-1.86-1.44-2.79-.07-.13-.15-.26-.26-.43-.15,.18-.11,.35-.09,.5,.16,.85,.01,1.72,.16,2.58,.04,.22,0,.46-.04,.69-.04,.19-.18,.34-.39,.33-.24,0-.29-.19-.31-.39-.03-.32-.08-.64-.09-.96-.07-2.2-.12-4.39-.2-6.59-.02-.51-.09-1.01-.08-1.52,0-.25,.05-.49,.35-.51,.3-.02,.38,.21,.43,.45,.12,.69,.05,1.38,.06,2.07,0,.5,.02,1,.14,1.57Z"/><path class="cls-1" d="M44.65,25.03c.06-1.38-.65-2.47-1.36-3.56-.33-.51-.58-1.05-.7-1.64-.12-.54-.01-1.04,.19-1.53,.19-.45,.53-.79,1.04-.79,.55,0,1.02,.24,1.32,.72,.13,.21,.22,.5-.04,.66-.25,.16-.47,0-.62-.22-.17-.25-.37-.42-.69-.34-.32,.09-.36,.37-.42,.65-.2,.91,.2,1.65,.69,2.35,.34,.49,.7,.98,.95,1.52,.42,.91,.51,1.86,.32,2.84-.1,.55-.43,.98-.86,1.33-.46,.37-1.07,.31-1.43-.16-.31-.4-.43-.88-.4-1.39,.01-.22,.12-.39,.35-.42,.26-.03,.36,.13,.4,.35,.04,.2,.06,.39,.08,.59,.03,.2,.07,.41,.3,.48,.24,.08,.42-.06,.56-.24,.28-.36,.31-.79,.33-1.22Z"/><path class="cls-1" d="M36.62,9.24c0-.43,0-.86,0-1.29,0-.4,.22-.61,.59-.63,.52-.02,1.05-.02,1.57,0,.24,0,.56,.07,.53,.39-.02,.29-.32,.34-.58,.34-.28,0-.55,.01-.83,0-.31,0-.45,.11-.45,.43,0,1.02,0,2.03,0,3.05,0,.3,.14,.42,.44,.36,.26-.05,.52-.09,.78-.11,.2-.02,.38,.03,.42,.26,.04,.22-.1,.36-.3,.4-.3,.07-.6,.11-.91,.16-.29,.04-.43,.19-.43,.49,0,.74,0,1.48,0,2.22,0,.3,.14,.42,.42,.41,.28-.02,.55-.03,.83-.06,.19-.02,.37-.04,.54,.05,.12,.06,.21,.14,.2,.28,0,.12-.08,.2-.19,.24-.75,.22-1.52,.21-2.28,.05-.26-.05-.27-.31-.27-.53,0-.85-.02-1.69,0-2.54,.04-1.32-.11-2.64-.09-3.96Z"/><path class="cls-1" d="M16.47,25.68c0,.22,0,.35,0,.47-.02,.2-.04,.43-.31,.43-.26,0-.38-.19-.41-.42-.07-.66-.15-1.31-.2-1.97-.13-1.54-.24-3.09-.36-4.63-.02-.24-.03-.49,0-.74,.05-.45,.27-.79,.73-.9,.52-.12,1.05-.27,1.59-.09,.18,.06,.36,.14,.32,.38-.03,.21-.21,.25-.38,.26-.28,.02-.55,0-.83,.03-.4,.03-.63,.24-.6,.66,.05,.6,.12,1.19,.16,1.79,.03,.45,.27,.53,.66,.45,.19-.04,.4-.04,.59-.04,.15,0,.28,.06,.31,.23,.03,.16-.06,.26-.2,.33-.24,.12-.49,.17-.76,.18-.51,.02-.6,.15-.55,.66,.09,1.01,.17,2.02,.24,2.93Z"/><path class="cls-1" d="M37.46,19.37c-.09,2.41-.19,4.82-.29,7.23,0,.15-.05,.3-.1,.45-.07,.21-.23,.33-.46,.29-.24-.04-.27-.24-.26-.43,.04-1.21,.09-2.42,.14-3.64,0-.18,.03-.37,.04-.55,.03-1.37,.06-2.73,.1-4.1,0-.14,.02-.28,.06-.41,.07-.2,.23-.28,.43-.27,.23,.01,.33,.16,.34,.36,.01,.35,0,.71,0,1.06,0,0,0,0-.01,0Z"/><path class="cls-1" d="M28.09,31.19c-.48,.14-.72-.07-.93-.4-.1-.16-.21-.5-.44-.34-.18,.13-.12,.45,.07,.66,.02,.02,.02,.05,.04,.09-.24,.07-.49,.04-.73,.02,.25-.62,.22-1.24,.07-1.86-.03-.14-.1-.23,.09-.24,.32-.02,.65-.05,.96,.04,.39,.11,.59,.53,.33,.78-.41,.38-.12,.6,.1,.86,.11,.14,.27,.24,.44,.4Zm-1.45-1.48c.02,.17,0,.4,.27,.37,.2-.02,.34-.14,.35-.36,0-.23-.11-.39-.35-.4-.27-.01-.26,.2-.27,.39Z"/><path class="cls-1" d="M31.97,30.44c.02-.44,.16-.88-.23-1.23,.15-.14,.31-.09,.46-.08,.1,0,.21,.05,.14,.17-.29,.52-.09,1.09-.15,1.63-.01,.12,.04,.27-.12,.31-.12,.03-.17-.11-.23-.19-.36-.47-.72-.95-1.14-1.41-.05,.53-.21,1.06,.14,1.56-.16,.11-.33,.04-.5,.06,.24-.7,.32-1.38-.07-2.1,1.02-.16,1.05,.97,1.7,1.3Z"/><path class="cls-1" d="M29.85,29.62c-.18-.08-.23-.29-.43-.3-.15,0-.32-.04-.41,.12-.08,.16-.09,.34,.02,.48,.1,.14,.24,.1,.36,0,.07-.06,.15-.08,.18,.02,.03,.12,.02,.24,0,.36-.02,.1-.1,.11-.18,.05-.13-.09-.3-.19-.39,.01-.09,.21-.11,.46,.05,.66,.12,.15,.3,.12,.47,.07,.2-.06,.26-.29,.45-.38,.11,.42,.06,.5-.34,.52-.35,.01-.78,.12-1.04-.03-.25-.15,.04-.58-.02-.89-.06-.34,.08-.7-.13-1.03-.1-.15,.09-.16,.18-.16,.31,0,.62,0,.92,0,.29,.01,.35,.2,.29,.5Z"/><path class="cls-1" d="M34.06,31.22h-.77c.32-.56,.18-1.14,.15-1.7-.01-.24-.25-.24-.43-.17-.12,.05-.22,.15-.35,.23-.06-.3,.05-.46,.34-.46,.44,0,.89,0,1.33,0,.12,0,.26,.02,.3,.16,.02,.07,.03,.17,0,.22-.07,.1-.12-.01-.18-.04-.44-.25-.62-.16-.6,.35,.01,.47-.14,.97,.2,1.42Z"/></g></g></svg>